<?xml version="1.0" encoding="UTF-8" standalone="no"?>
<!DOCTYPE svg PUBLIC "-//W3C//DTD SVG 1.1//EN"
 "http://www.w3.org/Graphics/SVG/1.1/DTD/svg11.dtd">
<!-- Generated by graphviz version 2.43.0 (0)
 -->
<!-- Title: models_diagram Pages: 1 -->
<svg width="211pt" height="352pt"
 viewBox="0.00 0.00 210.54 352.00" xmlns="http://www.w3.org/2000/svg" xmlns:xlink="http://www.w3.org/1999/xlink">
<g id="graph0" class="graph" transform="scale(1 1) rotate(0) translate(4 348)">
<title>models_diagram</title>
<polygon fill="transparent" stroke="transparent" points="-4,4 -4,-348 206.54,-348 206.54,4 -4,4"/>
<g id="clust1" class="cluster">
<title>cluster_subscription</title>
<polygon fill="transparent" stroke="black" points="8,-8 8,-336 189,-336 189,-8 8,-8"/>
<text text-anchor="middle" x="98.5" y="-320.8" font-family="Times,serif" font-size="14.00">Subscription</text>
</g>
<!-- subscription_initialized -->
<g id="node1" class="node">
<title>subscription_initialized</title>
<ellipse fill="none" stroke="black" cx="130" cy="-284" rx="45.44" ry="18"/>
<ellipse fill="none" stroke="black" cx="130" cy="-284" rx="49.44" ry="22"/>
<text text-anchor="middle" x="130" y="-279.8" font-family="Times,serif" font-size="14.00">initialized</text>
</g>
<!-- subscription_pending -->
<g id="node2" class="node">
<title>subscription_pending</title>
<ellipse fill="none" stroke="black" cx="55" cy="-198" rx="38.7" ry="18"/>
<text text-anchor="middle" x="55" y="-193.8" font-family="Times,serif" font-size="14.00">pending</text>
</g>
<!-- subscription_initialized&#45;&gt;subscription_pending -->
<g id="edge1" class="edge">
<title>subscription_initialized&#45;&gt;subscription_pending</title>
<path fill="none" stroke="black" d="M112.23,-263.09C101.32,-250.88 87.3,-235.18 75.87,-222.38"/>
<polygon fill="black" stroke="black" points="78.41,-219.97 69.14,-214.84 73.19,-224.63 78.41,-219.97"/>
<text text-anchor="middle" x="103.72" y="-236" font-family="Times,serif" font-size="10.00">pend</text>
</g>
<!-- subscription_active -->
<g id="node3" class="node">
<title>subscription_active</title>
<ellipse fill="none" stroke="black" cx="85" cy="-116" rx="31.44" ry="18"/>
<text text-anchor="middle" x="85" y="-111.8" font-family="Times,serif" font-size="14.00">active</text>
</g>
<!-- subscription_initialized&#45;&gt;subscription_active -->
<g id="edge2" class="edge">
<title>subscription_initialized&#45;&gt;subscription_active</title>
<path fill="none" stroke="black" d="M128.48,-261.96C126.05,-235.55 120.04,-189.21 106,-152 104.74,-148.65 103.15,-145.26 101.43,-141.97"/>
<polygon fill="black" stroke="black" points="104.35,-140.03 96.32,-133.11 98.28,-143.53 104.35,-140.03"/>
<text text-anchor="middle" x="137.54" y="-195" font-family="Times,serif" font-size="10.00">activate</text>
</g>
<!-- subscription_pending&#45;&gt;subscription_active -->
<g id="edge3" class="edge">
<title>subscription_pending&#45;&gt;subscription_active</title>
<path fill="none" stroke="black" d="M61.36,-180.03C65.37,-169.36 70.62,-155.36 75.15,-143.26"/>
<polygon fill="black" stroke="black" points="78.52,-144.26 78.75,-133.67 71.96,-141.8 78.52,-144.26"/>
<text text-anchor="middle" x="86.54" y="-154" font-family="Times,serif" font-size="10.00">activate</text>
</g>
<!-- subscription_canceled -->
<g id="node4" class="node">
<title>subscription_canceled</title>
<ellipse fill="none" stroke="black" cx="114" cy="-34" rx="41.07" ry="18"/>
<text text-anchor="middle" x="114" y="-29.8" font-family="Times,serif" font-size="14.00">canceled</text>
</g>
<!-- subscription_active&#45;&gt;subscription_canceled -->
<g id="edge4" class="edge">
<title>subscription_active&#45;&gt;subscription_canceled</title>
<path fill="none" stroke="black" d="M91.15,-98.03C94.99,-87.43 100.03,-73.54 104.39,-61.51"/>
<polygon fill="black" stroke="black" points="107.74,-62.54 107.86,-51.94 101.16,-60.15 107.74,-62.54"/>
<text text-anchor="middle" x="113.77" y="-72" font-family="Times,serif" font-size="10.00">cancel</text>
</g>
<!-- subscription_canceled&#45;&gt;subscription_initialized -->
<g id="edge5" class="edge">
<title>subscription_canceled&#45;&gt;subscription_initialized</title>
<path fill="none" stroke="black" d="M122.93,-51.87C138.72,-83.75 168.81,-155.12 157,-216 154.56,-228.57 149.78,-241.77 144.9,-253.1"/>
<polygon fill="black" stroke="black" points="141.58,-251.95 140.65,-262.51 147.96,-254.84 141.58,-251.95"/>
<text text-anchor="middle" x="179.77" y="-154" font-family="Times,serif" font-size="10.00">resubscribe</text>
</g>
</g>
</svg>
