<?xml version="1.0" encoding="UTF-8" standalone="no"?>
<!DOCTYPE svg PUBLIC "-//W3C//DTD SVG 1.1//EN"
 "http://www.w3.org/Graphics/SVG/1.1/DTD/svg11.dtd">
<!-- Generated by graphviz version 2.40.1 (20161225.0304)
 -->
<!-- Title: Wingzzz Pages: 1 -->
<svg width="1195pt" height="836pt"
 viewBox="0.00 0.00 1194.60 835.60" xmlns="http://www.w3.org/2000/svg" xmlns:xlink="http://www.w3.org/1999/xlink">
<g id="graph0" class="graph" transform="scale(1 1) rotate(0) translate(28.8 806.8)">
<title>Wingzzz</title>
<polygon fill="#ffffff" stroke="transparent" points="-28.8,28.8 -28.8,-806.8 1165.8,-806.8 1165.8,28.8 -28.8,28.8"/>
<!-- m_Ahoy::Event -->
<g id="node1" class="node">
<title>m_Ahoy::Event</title>
<path fill="none" stroke="#000000" d="M659,-.5C659,-.5 779,-.5 779,-.5 785,-.5 791,-6.5 791,-12.5 791,-12.5 791,-57.5 791,-57.5 791,-63.5 785,-69.5 779,-69.5 779,-69.5 659,-69.5 659,-69.5 653,-69.5 647,-63.5 647,-57.5 647,-57.5 647,-12.5 647,-12.5 647,-6.5 653,-.5 659,-.5"/>
<text text-anchor="start" x="684" y="-56.7" font-family="Arial Bold" font-size="11.00" fill="#000000">Ahoy::Event</text>
<polyline fill="none" stroke="#000000" points="647,-49.5 791,-49.5 "/>
<text text-anchor="start" x="654" y="-36" font-family="Arial" font-size="10.00" fill="#000000">name </text>
<text text-anchor="start" x="682" y="-36" font-family="Arial Italic" font-size="10.00" fill="#999999">string</text>
<text text-anchor="start" x="654" y="-23" font-family="Arial" font-size="10.00" fill="#000000">properties </text>
<text text-anchor="start" x="700" y="-23" font-family="Arial Italic" font-size="10.00" fill="#999999">jsonb</text>
<text text-anchor="start" x="654" y="-10" font-family="Arial" font-size="10.00" fill="#000000">time </text>
<text text-anchor="start" x="676" y="-10" font-family="Arial Italic" font-size="10.00" fill="#999999">datetime</text>
</g>
<!-- m_Ahoy::Visit -->
<g id="node2" class="node">
<title>m_Ahoy::Visit</title>
<path fill="none" stroke="#000000" d="M659,-171.5C659,-171.5 779,-171.5 779,-171.5 785,-171.5 791,-177.5 791,-183.5 791,-183.5 791,-228.5 791,-228.5 791,-234.5 785,-240.5 779,-240.5 779,-240.5 659,-240.5 659,-240.5 653,-240.5 647,-234.5 647,-228.5 647,-228.5 647,-183.5 647,-183.5 647,-177.5 653,-171.5 659,-171.5"/>
<text text-anchor="start" x="687.5" y="-227.7" font-family="Arial Bold" font-size="11.00" fill="#000000">Ahoy::Visit</text>
<polyline fill="none" stroke="#000000" points="647,-220.5 791,-220.5 "/>
<text text-anchor="start" x="654" y="-207" font-family="Arial" font-size="10.00" fill="#000000">started_at </text>
<text text-anchor="start" x="701" y="-207" font-family="Arial Italic" font-size="10.00" fill="#999999">datetime</text>
<text text-anchor="start" x="654" y="-194" font-family="Arial" font-size="10.00" fill="#000000">visit_token </text>
<text text-anchor="start" x="705" y="-194" font-family="Arial Italic" font-size="10.00" fill="#999999">string</text>
<text text-anchor="start" x="654" y="-181" font-family="Arial" font-size="10.00" fill="#000000">visitor_token </text>
<text text-anchor="start" x="713" y="-181" font-family="Arial Italic" font-size="10.00" fill="#999999">string</text>
</g>
<!-- m_Ahoy::Visit&#45;&gt;m_Ahoy::Event -->
<g id="edge13" class="edge">
<title>m_Ahoy::Visit&#45;&gt;m_Ahoy::Event</title>
<path fill="none" stroke="#000000" d="M719,-166.4171C719,-140.7782 719,-107.3071 719,-80.5613"/>
<ellipse fill="none" stroke="#000000" cx="719" cy="-168.9956" rx="2.4" ry="2.4"/>
<ellipse fill="#000000" stroke="#000000" cx="719" cy="-71.9529" rx="2.4" ry="2.4"/>
<polygon fill="#000000" stroke="#000000" points="721.1001,-80.3529 719,-74.3529 716.9001,-80.353 721.1001,-80.3529"/>
</g>
<!-- m_Author -->
<g id="node3" class="node">
<title>m_Author</title>
<path fill="none" stroke="#000000" d="M12,-472.5C12,-472.5 132,-472.5 132,-472.5 138,-472.5 144,-478.5 144,-484.5 144,-484.5 144,-503.5 144,-503.5 144,-509.5 138,-515.5 132,-515.5 132,-515.5 12,-515.5 12,-515.5 6,-515.5 0,-509.5 0,-503.5 0,-503.5 0,-484.5 0,-484.5 0,-478.5 6,-472.5 12,-472.5"/>
<text text-anchor="start" x="51.5" y="-502.7" font-family="Arial Bold" font-size="11.00" fill="#000000">Author</text>
<polyline fill="none" stroke="#000000" points="0,-495.5 144,-495.5 "/>
<text text-anchor="start" x="7" y="-482" font-family="Arial" font-size="10.00" fill="#000000">name </text>
<text text-anchor="start" x="35" y="-482" font-family="Arial Italic" font-size="10.00" fill="#999999">string ∗ U</text>
</g>
<!-- m_Book -->
<g id="node4" class="node">
<title>m_Book</title>
<path fill="none" stroke="#000000" d="M59,-106.5C59,-106.5 193,-106.5 193,-106.5 199,-106.5 205,-112.5 205,-118.5 205,-118.5 205,-293.5 205,-293.5 205,-299.5 199,-305.5 193,-305.5 193,-305.5 59,-305.5 59,-305.5 53,-305.5 47,-299.5 47,-293.5 47,-293.5 47,-118.5 47,-118.5 47,-112.5 53,-106.5 59,-106.5"/>
<text text-anchor="start" x="110" y="-292.7" font-family="Arial Bold" font-size="11.00" fill="#000000">Book</text>
<polyline fill="none" stroke="#000000" points="47,-285.5 205,-285.5 "/>
<text text-anchor="start" x="54" y="-272" font-family="Arial" font-size="10.00" fill="#000000">audio </text>
<text text-anchor="start" x="81" y="-272" font-family="Arial Italic" font-size="10.00" fill="#999999">string</text>
<text text-anchor="start" x="54" y="-259" font-family="Arial" font-size="10.00" fill="#000000">audio_meta </text>
<text text-anchor="start" x="108" y="-259" font-family="Arial Italic" font-size="10.00" fill="#999999">string</text>
<text text-anchor="start" x="54" y="-246" font-family="Arial" font-size="10.00" fill="#000000">book_type </text>
<text text-anchor="start" x="103" y="-246" font-family="Arial Italic" font-size="10.00" fill="#999999">integer</text>
<text text-anchor="start" x="54" y="-233" font-family="Arial" font-size="10.00" fill="#000000">cover </text>
<text text-anchor="start" x="82" y="-233" font-family="Arial Italic" font-size="10.00" fill="#999999">string</text>
<text text-anchor="start" x="54" y="-220" font-family="Arial" font-size="10.00" fill="#000000">language </text>
<text text-anchor="start" x="97" y="-220" font-family="Arial Italic" font-size="10.00" fill="#999999">string ∗</text>
<text text-anchor="start" x="54" y="-207" font-family="Arial" font-size="10.00" fill="#000000">layout </text>
<text text-anchor="start" x="84" y="-207" font-family="Arial Italic" font-size="10.00" fill="#999999">string ∗</text>
<text text-anchor="start" x="54" y="-194" font-family="Arial" font-size="10.00" fill="#000000">max_age_in_months </text>
<text text-anchor="start" x="148" y="-194" font-family="Arial Italic" font-size="10.00" fill="#999999">integer (2)</text>
<text text-anchor="start" x="54" y="-181" font-family="Arial" font-size="10.00" fill="#000000">min_age_in_months </text>
<text text-anchor="start" x="145" y="-181" font-family="Arial Italic" font-size="10.00" fill="#999999">integer (2)</text>
<text text-anchor="start" x="54" y="-168" font-family="Arial" font-size="10.00" fill="#000000">reader </text>
<text text-anchor="start" x="85" y="-168" font-family="Arial Italic" font-size="10.00" fill="#999999">integer</text>
<text text-anchor="start" x="54" y="-155" font-family="Arial" font-size="10.00" fill="#000000">slug </text>
<text text-anchor="start" x="76" y="-155" font-family="Arial Italic" font-size="10.00" fill="#999999">string</text>
<text text-anchor="start" x="54" y="-142" font-family="Arial" font-size="10.00" fill="#000000">summary </text>
<text text-anchor="start" x="98" y="-142" font-family="Arial Italic" font-size="10.00" fill="#999999">string (1024)</text>
<text text-anchor="start" x="54" y="-129" font-family="Arial" font-size="10.00" fill="#000000">title </text>
<text text-anchor="start" x="73" y="-129" font-family="Arial Italic" font-size="10.00" fill="#999999">string ∗</text>
<text text-anchor="start" x="54" y="-116" font-family="Arial" font-size="10.00" fill="#000000">trending_now_position </text>
<text text-anchor="start" x="154" y="-116" font-family="Arial Italic" font-size="10.00" fill="#999999">integer (2)</text>
</g>
<!-- m_Author&#45;&gt;m_Book -->
<g id="edge10" class="edge">
<title>m_Author&#45;&gt;m_Book</title>
<path fill="none" stroke="#000000" d="M78.0836,-461.5539C84.6857,-426.3427 95.5907,-368.1828 105.3309,-316.2354"/>
<ellipse fill="none" stroke="#000000" cx="76.5011" cy="-469.9943" rx="2.4" ry="2.4"/>
<polygon fill="#000000" stroke="#000000" points="75.9851,-461.3511 76.9434,-467.6354 80.1132,-462.1252 75.9851,-461.3511"/>
<ellipse fill="none" stroke="#000000" cx="106.8833" cy="-307.9558" rx="2.4" ry="2.4"/>
<polygon fill="#000000" stroke="#000000" points="107.3992,-316.599 106.441,-310.3147 103.2711,-315.8249 107.3992,-316.599"/>
</g>
<!-- m_BookSession -->
<g id="node5" class="node">
<title>m_BookSession</title>
<path fill="none" stroke="#000000" d="M66,-13.5C66,-13.5 186,-13.5 186,-13.5 192,-13.5 198,-19.5 198,-25.5 198,-25.5 198,-44.5 198,-44.5 198,-50.5 192,-56.5 186,-56.5 186,-56.5 66,-56.5 66,-56.5 60,-56.5 54,-50.5 54,-44.5 54,-44.5 54,-25.5 54,-25.5 54,-19.5 60,-13.5 66,-13.5"/>
<text text-anchor="start" x="89" y="-43.7" font-family="Arial Bold" font-size="11.00" fill="#000000">BookSession</text>
<polyline fill="none" stroke="#000000" points="54,-36.5 198,-36.5 "/>
<text text-anchor="start" x="61" y="-23" font-family="Arial" font-size="10.00" fill="#000000">current_page </text>
<text text-anchor="start" x="121" y="-23" font-family="Arial Italic" font-size="10.00" fill="#999999">integer</text>
</g>
<!-- m_Book&#45;&gt;m_BookSession -->
<g id="edge9" class="edge">
<title>m_Book&#45;&gt;m_BookSession</title>
<path fill="none" stroke="#000000" d="M126,-100.8403C126,-88.8835 126,-77.469 126,-67.6026"/>
<ellipse fill="none" stroke="#000000" cx="126" cy="-103.6338" rx="2.4" ry="2.4"/>
<ellipse fill="#000000" stroke="#000000" cx="126" cy="-59.1916" rx="2.4" ry="2.4"/>
<polygon fill="#000000" stroke="#000000" points="128.1001,-67.5915 126,-61.5916 123.9001,-67.5916 128.1001,-67.5915"/>
</g>
<!-- m_Profile -->
<g id="node6" class="node">
<title>m_Profile</title>
<path fill="none" stroke="#000000" d="M419,-171.5C419,-171.5 547,-171.5 547,-171.5 553,-171.5 559,-177.5 559,-183.5 559,-183.5 559,-228.5 559,-228.5 559,-234.5 553,-240.5 547,-240.5 547,-240.5 419,-240.5 419,-240.5 413,-240.5 407,-234.5 407,-228.5 407,-228.5 407,-183.5 407,-183.5 407,-177.5 413,-171.5 419,-171.5"/>
<text text-anchor="start" x="463.5" y="-227.7" font-family="Arial Bold" font-size="11.00" fill="#000000">Profile</text>
<polyline fill="none" stroke="#000000" points="407,-220.5 559,-220.5 "/>
<text text-anchor="start" x="414" y="-207" font-family="Arial" font-size="10.00" fill="#000000">content_language </text>
<text text-anchor="start" x="494" y="-207" font-family="Arial Italic" font-size="10.00" fill="#999999">string ∗</text>
<text text-anchor="start" x="414" y="-194" font-family="Arial" font-size="10.00" fill="#000000">max_age_in_months </text>
<text text-anchor="start" x="508" y="-194" font-family="Arial Italic" font-size="10.00" fill="#999999">integer (2)</text>
<text text-anchor="start" x="414" y="-181" font-family="Arial" font-size="10.00" fill="#000000">min_age_in_months </text>
<text text-anchor="start" x="505" y="-181" font-family="Arial Italic" font-size="10.00" fill="#999999">integer (2)</text>
</g>
<!-- m_Profile&#45;&gt;m_BookSession -->
<g id="edge11" class="edge">
<title>m_Profile&#45;&gt;m_BookSession</title>
<path fill="none" stroke="#000000" d="M456.7834,-167.2491C440.6843,-146.2447 418.323,-121.4889 393,-106 336.8977,-71.685 264.3015,-53.7608 208.972,-44.5133"/>
<ellipse fill="none" stroke="#000000" cx="458.2676" cy="-169.2106" rx="2.4" ry="2.4"/>
<ellipse fill="#000000" stroke="#000000" cx="200.516" cy="-43.1573" rx="2.4" ry="2.4"/>
<polygon fill="#000000" stroke="#000000" points="209.1426,-42.4139 202.8858,-43.5373 208.4775,-46.5609 209.1426,-42.4139"/>
</g>
<!-- m_Publisher -->
<g id="node7" class="node">
<title>m_Publisher</title>
<path fill="none" stroke="#000000" d="M185,-472.5C185,-472.5 305,-472.5 305,-472.5 311,-472.5 317,-478.5 317,-484.5 317,-484.5 317,-503.5 317,-503.5 317,-509.5 311,-515.5 305,-515.5 305,-515.5 185,-515.5 185,-515.5 179,-515.5 173,-509.5 173,-503.5 173,-503.5 173,-484.5 173,-484.5 173,-478.5 179,-472.5 185,-472.5"/>
<text text-anchor="start" x="217.5" y="-502.7" font-family="Arial Bold" font-size="11.00" fill="#000000">Publisher</text>
<polyline fill="none" stroke="#000000" points="173,-495.5 317,-495.5 "/>
<text text-anchor="start" x="180" y="-482" font-family="Arial" font-size="10.00" fill="#000000">name </text>
<text text-anchor="start" x="208" y="-482" font-family="Arial Italic" font-size="10.00" fill="#999999">string ∗ U</text>
</g>
<!-- m_Publisher&#45;&gt;m_Book -->
<g id="edge8" class="edge">
<title>m_Publisher&#45;&gt;m_Book</title>
<path fill="none" stroke="#000000" d="M234.1031,-467.6276C219.8955,-433.2429 194.1654,-370.9717 171.3714,-315.8065"/>
<ellipse fill="none" stroke="#000000" cx="235.1391" cy="-470.1351" rx="2.4" ry="2.4"/>
<ellipse fill="none" stroke="#000000" cx="168.0694" cy="-307.815" rx="2.4" ry="2.4"/>
<polygon fill="#000000" stroke="#000000" points="173.2181,-314.7765 168.9859,-310.0331 169.3364,-316.3804 173.2181,-314.7765"/>
</g>
<!-- m_Role -->
<g id="node8" class="node">
<title>m_Role</title>
<path fill="none" stroke="#000000" d="M543,-695.5C543,-695.5 663,-695.5 663,-695.5 669,-695.5 675,-701.5 675,-707.5 675,-707.5 675,-752.5 675,-752.5 675,-758.5 669,-764.5 663,-764.5 663,-764.5 543,-764.5 543,-764.5 537,-764.5 531,-758.5 531,-752.5 531,-752.5 531,-707.5 531,-707.5 531,-701.5 537,-695.5 543,-695.5"/>
<text text-anchor="start" x="588.5" y="-751.7" font-family="Arial Bold" font-size="11.00" fill="#000000">Role</text>
<polyline fill="none" stroke="#000000" points="531,-744.5 675,-744.5 "/>
<text text-anchor="start" x="538" y="-731" font-family="Arial" font-size="10.00" fill="#000000">name </text>
<text text-anchor="start" x="566" y="-731" font-family="Arial Italic" font-size="10.00" fill="#999999">string</text>
<text text-anchor="start" x="538" y="-718" font-family="Arial" font-size="10.00" fill="#000000">resource_id </text>
<text text-anchor="start" x="592" y="-718" font-family="Arial Italic" font-size="10.00" fill="#999999">integer (8)</text>
<text text-anchor="start" x="538" y="-705" font-family="Arial" font-size="10.00" fill="#000000">resource_type </text>
<text text-anchor="start" x="603" y="-705" font-family="Arial Italic" font-size="10.00" fill="#999999">string</text>
</g>
<!-- m_User -->
<g id="node13" class="node">
<title>m_User</title>
<path fill="none" stroke="#000000" d="M534.5,-342.5C534.5,-342.5 671.5,-342.5 671.5,-342.5 677.5,-342.5 683.5,-348.5 683.5,-354.5 683.5,-354.5 683.5,-633.5 683.5,-633.5 683.5,-639.5 677.5,-645.5 671.5,-645.5 671.5,-645.5 534.5,-645.5 534.5,-645.5 528.5,-645.5 522.5,-639.5 522.5,-633.5 522.5,-633.5 522.5,-354.5 522.5,-354.5 522.5,-348.5 528.5,-342.5 534.5,-342.5"/>
<text text-anchor="start" x="588.5" y="-632.7" font-family="Arial Bold" font-size="11.00" fill="#000000">User</text>
<polyline fill="none" stroke="#000000" points="522.5,-625.5 683.5,-625.5 "/>
<text text-anchor="start" x="530" y="-612" font-family="Arial" font-size="10.00" fill="#000000">admin </text>
<text text-anchor="start" x="560" y="-612" font-family="Arial Italic" font-size="10.00" fill="#999999">boolean</text>
<text text-anchor="start" x="530" y="-599" font-family="Arial" font-size="10.00" fill="#000000">confirmation_sent_at </text>
<text text-anchor="start" x="624" y="-599" font-family="Arial Italic" font-size="10.00" fill="#999999">datetime</text>
<text text-anchor="start" x="530" y="-586" font-family="Arial" font-size="10.00" fill="#000000">confirmation_token </text>
<text text-anchor="start" x="616" y="-586" font-family="Arial Italic" font-size="10.00" fill="#999999">string</text>
<text text-anchor="start" x="530" y="-573" font-family="Arial" font-size="10.00" fill="#000000">confirmed_at </text>
<text text-anchor="start" x="590" y="-573" font-family="Arial Italic" font-size="10.00" fill="#999999">datetime</text>
<text text-anchor="start" x="530" y="-560" font-family="Arial" font-size="10.00" fill="#000000">email </text>
<text text-anchor="start" x="557" y="-560" font-family="Arial Italic" font-size="10.00" fill="#999999">string ∗ U</text>
<text text-anchor="start" x="530" y="-547" font-family="Arial" font-size="10.00" fill="#000000">encrypted_password </text>
<text text-anchor="start" x="623" y="-547" font-family="Arial Italic" font-size="10.00" fill="#999999">string ∗</text>
<text text-anchor="start" x="530" y="-534" font-family="Arial" font-size="10.00" fill="#000000">image </text>
<text text-anchor="start" x="560" y="-534" font-family="Arial Italic" font-size="10.00" fill="#999999">text</text>
<text text-anchor="start" x="530" y="-521" font-family="Arial" font-size="10.00" fill="#000000">invitation_accepted_at </text>
<text text-anchor="start" x="631" y="-521" font-family="Arial Italic" font-size="10.00" fill="#999999">datetime</text>
<text text-anchor="start" x="530" y="-508" font-family="Arial" font-size="10.00" fill="#000000">invitation_created_at </text>
<text text-anchor="start" x="624" y="-508" font-family="Arial Italic" font-size="10.00" fill="#999999">datetime</text>
<text text-anchor="start" x="530" y="-495" font-family="Arial" font-size="10.00" fill="#000000">invitation_limit </text>
<text text-anchor="start" x="596" y="-495" font-family="Arial Italic" font-size="10.00" fill="#999999">integer</text>
<text text-anchor="start" x="530" y="-482" font-family="Arial" font-size="10.00" fill="#000000">invitation_sent_at </text>
<text text-anchor="start" x="610" y="-482" font-family="Arial Italic" font-size="10.00" fill="#999999">datetime</text>
<text text-anchor="start" x="530" y="-469" font-family="Arial" font-size="10.00" fill="#000000">invitation_token </text>
<text text-anchor="start" x="602" y="-469" font-family="Arial Italic" font-size="10.00" fill="#999999">string</text>
<text text-anchor="start" x="530" y="-456" font-family="Arial" font-size="10.00" fill="#000000">invitations_count </text>
<text text-anchor="start" x="607" y="-456" font-family="Arial Italic" font-size="10.00" fill="#999999">integer</text>
<text text-anchor="start" x="530" y="-443" font-family="Arial" font-size="10.00" fill="#000000">invited_by_type </text>
<text text-anchor="start" x="602" y="-443" font-family="Arial Italic" font-size="10.00" fill="#999999">string</text>
<text text-anchor="start" x="530" y="-430" font-family="Arial" font-size="10.00" fill="#000000">locale </text>
<text text-anchor="start" x="559" y="-430" font-family="Arial Italic" font-size="10.00" fill="#999999">string ∗</text>
<text text-anchor="start" x="530" y="-417" font-family="Arial" font-size="10.00" fill="#000000">mollie_customer_id </text>
<text text-anchor="start" x="618" y="-417" font-family="Arial Italic" font-size="10.00" fill="#999999">string</text>
<text text-anchor="start" x="530" y="-404" font-family="Arial" font-size="10.00" fill="#000000">name </text>
<text text-anchor="start" x="558" y="-404" font-family="Arial Italic" font-size="10.00" fill="#999999">string</text>
<text text-anchor="start" x="530" y="-391" font-family="Arial" font-size="10.00" fill="#000000">provider </text>
<text text-anchor="start" x="568" y="-391" font-family="Arial Italic" font-size="10.00" fill="#999999">string</text>
<text text-anchor="start" x="530" y="-378" font-family="Arial" font-size="10.00" fill="#000000">reset_password_sent_at </text>
<text text-anchor="start" x="639" y="-378" font-family="Arial Italic" font-size="10.00" fill="#999999">datetime</text>
<text text-anchor="start" x="530" y="-365" font-family="Arial" font-size="10.00" fill="#000000">reset_password_token </text>
<text text-anchor="start" x="631" y="-365" font-family="Arial Italic" font-size="10.00" fill="#999999">string</text>
<text text-anchor="start" x="530" y="-352" font-family="Arial" font-size="10.00" fill="#000000">uid </text>
<text text-anchor="start" x="546" y="-352" font-family="Arial Italic" font-size="10.00" fill="#999999">string</text>
</g>
<!-- m_Role&#45;&gt;m_User -->
<g id="edge1" class="edge">
<title>m_Role&#45;&gt;m_User</title>
<path fill="none" stroke="#000000" d="M603,-684.3448C603,-675.8068 603,-666.4459 603,-656.5993"/>
<ellipse fill="none" stroke="#000000" cx="603" cy="-693.0308" rx="2.4" ry="2.4"/>
<polygon fill="#000000" stroke="#000000" points="600.9001,-684.6308 603,-690.6308 605.1001,-684.6308 600.9001,-684.6308"/>
<ellipse fill="none" stroke="#000000" cx="603" cy="-648.1399" rx="2.4" ry="2.4"/>
<polygon fill="#000000" stroke="#000000" points="605.1001,-656.5399 603,-650.5399 600.9001,-656.5399 605.1001,-656.5399"/>
</g>
<!-- m_School -->
<g id="node9" class="node">
<title>m_School</title>
<path fill="none" stroke="#000000" d="M370,-682.5C370,-682.5 490,-682.5 490,-682.5 496,-682.5 502,-688.5 502,-694.5 502,-694.5 502,-765.5 502,-765.5 502,-771.5 496,-777.5 490,-777.5 490,-777.5 370,-777.5 370,-777.5 364,-777.5 358,-771.5 358,-765.5 358,-765.5 358,-694.5 358,-694.5 358,-688.5 364,-682.5 370,-682.5"/>
<text text-anchor="start" x="409.5" y="-764.7" font-family="Arial Bold" font-size="11.00" fill="#000000">School</text>
<polyline fill="none" stroke="#000000" points="358,-757.5 502,-757.5 "/>
<text text-anchor="start" x="365" y="-744" font-family="Arial" font-size="10.00" fill="#000000">address </text>
<text text-anchor="start" x="403" y="-744" font-family="Arial Italic" font-size="10.00" fill="#999999">string ∗</text>
<text text-anchor="start" x="365" y="-731" font-family="Arial" font-size="10.00" fill="#000000">brin_code </text>
<text text-anchor="start" x="411" y="-731" font-family="Arial Italic" font-size="10.00" fill="#999999">string ∗ U</text>
<text text-anchor="start" x="365" y="-718" font-family="Arial" font-size="10.00" fill="#000000">city </text>
<text text-anchor="start" x="384" y="-718" font-family="Arial Italic" font-size="10.00" fill="#999999">string ∗</text>
<text text-anchor="start" x="365" y="-705" font-family="Arial" font-size="10.00" fill="#000000">name </text>
<text text-anchor="start" x="393" y="-705" font-family="Arial Italic" font-size="10.00" fill="#999999">string ∗</text>
<text text-anchor="start" x="365" y="-692" font-family="Arial" font-size="10.00" fill="#000000">postcode </text>
<text text-anchor="start" x="408" y="-692" font-family="Arial Italic" font-size="10.00" fill="#999999">string ∗</text>
</g>
<!-- m_SchoolSubscription -->
<g id="node10" class="node">
<title>m_SchoolSubscription</title>
<path fill="none" stroke="#000000" d="M246,-139C246,-139 366,-139 366,-139 372,-139 378,-145 378,-151 378,-151 378,-261 378,-261 378,-267 372,-273 366,-273 366,-273 246,-273 246,-273 240,-273 234,-267 234,-261 234,-261 234,-151 234,-151 234,-145 240,-139 246,-139"/>
<text text-anchor="start" x="251.5" y="-260.2" font-family="Arial Bold" font-size="11.00" fill="#000000">SchoolSubscription</text>
<polyline fill="none" stroke="#000000" points="234,-253 378,-253 "/>
<text text-anchor="start" x="241" y="-240" font-family="Arial" font-size="10.00" fill="#000000">billing_address </text>
<text text-anchor="start" x="309" y="-240" font-family="Arial Italic" font-size="10.00" fill="#999999">string ∗</text>
<text text-anchor="start" x="241" y="-227" font-family="Arial" font-size="10.00" fill="#000000">billing_brincode </text>
<text text-anchor="start" x="311" y="-227" font-family="Arial Italic" font-size="10.00" fill="#999999">string U</text>
<text text-anchor="start" x="241" y="-214" font-family="Arial" font-size="10.00" fill="#000000">billing_city </text>
<text text-anchor="start" x="290" y="-214" font-family="Arial Italic" font-size="10.00" fill="#999999">string ∗</text>
<text text-anchor="start" x="241" y="-201" font-family="Arial" font-size="10.00" fill="#000000">billing_name </text>
<text text-anchor="start" x="299" y="-201" font-family="Arial Italic" font-size="10.00" fill="#999999">string ∗</text>
<text text-anchor="start" x="241" y="-188" font-family="Arial" font-size="10.00" fill="#000000">billing_postcode </text>
<text text-anchor="start" x="314" y="-188" font-family="Arial Italic" font-size="10.00" fill="#999999">string</text>
<text text-anchor="start" x="241" y="-175" font-family="Arial" font-size="10.00" fill="#000000">contact_email </text>
<text text-anchor="start" x="305" y="-175" font-family="Arial Italic" font-size="10.00" fill="#999999">string ∗</text>
<text text-anchor="start" x="241" y="-162" font-family="Arial" font-size="10.00" fill="#000000">contact_name </text>
<text text-anchor="start" x="306" y="-162" font-family="Arial Italic" font-size="10.00" fill="#999999">string ∗</text>
<text text-anchor="start" x="241" y="-149" font-family="Arial" font-size="10.00" fill="#000000">end_date </text>
<text text-anchor="start" x="284" y="-149" font-family="Arial Italic" font-size="10.00" fill="#999999">date ∗</text>
</g>
<!-- m_School&#45;&gt;m_SchoolSubscription -->
<g id="edge12" class="edge">
<title>m_School&#45;&gt;m_SchoolSubscription</title>
<path fill="none" stroke="#000000" d="M417.5403,-677.3477C395.6125,-584.685 350.0303,-392.0637 324.4447,-283.9439"/>
<ellipse fill="none" stroke="#000000" cx="418.1144" cy="-679.7739" rx="2.4" ry="2.4"/>
<ellipse fill="#000000" stroke="#000000" cx="322.4339" cy="-275.4463" rx="2.4" ry="2.4"/>
<polygon fill="#000000" stroke="#000000" points="326.4118,-283.1369 322.9866,-277.7818 322.3247,-284.1041 326.4118,-283.1369"/>
</g>
<!-- m_School&#45;&gt;m_User -->
<g id="edge7" class="edge">
<title>m_School&#45;&gt;m_User</title>
<path fill="none" stroke="#000000" d="M467.9649,-678.2098C482.1871,-658.8084 498.9975,-635.8762 515.8412,-612.8987"/>
<ellipse fill="none" stroke="#000000" cx="466.4281" cy="-680.3062" rx="2.4" ry="2.4"/>
<ellipse fill="none" stroke="#000000" cx="520.8742" cy="-606.0329" rx="2.4" ry="2.4"/>
<polygon fill="#000000" stroke="#000000" points="517.6016,-614.0492 519.4552,-607.9686 514.2142,-611.5661 517.6016,-614.0492"/>
</g>
<!-- m_Subscription -->
<g id="node11" class="node">
<title>m_Subscription</title>
<path fill="none" stroke="#000000" d="M832,-158.5C832,-158.5 952,-158.5 952,-158.5 958,-158.5 964,-164.5 964,-170.5 964,-170.5 964,-241.5 964,-241.5 964,-247.5 958,-253.5 952,-253.5 952,-253.5 832,-253.5 832,-253.5 826,-253.5 820,-247.5 820,-241.5 820,-241.5 820,-170.5 820,-170.5 820,-164.5 826,-158.5 832,-158.5"/>
<text text-anchor="start" x="856" y="-240.7" font-family="Arial Bold" font-size="11.00" fill="#000000">Subscription</text>
<polyline fill="none" stroke="#000000" points="820,-233.5 964,-233.5 "/>
<text text-anchor="start" x="827" y="-220" font-family="Arial" font-size="10.00" fill="#000000">aasm_state </text>
<text text-anchor="start" x="882" y="-220" font-family="Arial Italic" font-size="10.00" fill="#999999">string</text>
<text text-anchor="start" x="827" y="-207" font-family="Arial" font-size="10.00" fill="#000000">checkout_url </text>
<text text-anchor="start" x="886" y="-207" font-family="Arial Italic" font-size="10.00" fill="#999999">string (2048)</text>
<text text-anchor="start" x="827" y="-194" font-family="Arial" font-size="10.00" fill="#000000">grace_period_ends_on </text>
<text text-anchor="start" x="928" y="-194" font-family="Arial Italic" font-size="10.00" fill="#999999">date</text>
<text text-anchor="start" x="827" y="-181" font-family="Arial" font-size="10.00" fill="#000000">mollie_subscription_id </text>
<text text-anchor="start" x="927" y="-181" font-family="Arial Italic" font-size="10.00" fill="#999999">string</text>
<text text-anchor="start" x="827" y="-168" font-family="Arial" font-size="10.00" fill="#000000">token </text>
<text text-anchor="start" x="855" y="-168" font-family="Arial Italic" font-size="10.00" fill="#999999">string</text>
</g>
<!-- m_Trial -->
<g id="node12" class="node">
<title>m_Trial</title>
<path fill="none" stroke="#000000" d="M1005,-184.5C1005,-184.5 1125,-184.5 1125,-184.5 1131,-184.5 1137,-190.5 1137,-196.5 1137,-196.5 1137,-215.5 1137,-215.5 1137,-221.5 1131,-227.5 1125,-227.5 1125,-227.5 1005,-227.5 1005,-227.5 999,-227.5 993,-221.5 993,-215.5 993,-215.5 993,-196.5 993,-196.5 993,-190.5 999,-184.5 1005,-184.5"/>
<text text-anchor="start" x="1051.5" y="-214.7" font-family="Arial Bold" font-size="11.00" fill="#000000">Trial</text>
<polyline fill="none" stroke="#000000" points="993,-207.5 1137,-207.5 "/>
<text text-anchor="start" x="1000" y="-194" font-family="Arial" font-size="10.00" fill="#000000">expires_after </text>
<text text-anchor="start" x="1060" y="-194" font-family="Arial Italic" font-size="10.00" fill="#999999">date</text>
</g>
<!-- m_User&#45;&gt;m_Ahoy::Event -->
<g id="edge14" class="edge">
<title>m_User&#45;&gt;m_Ahoy::Event</title>
<path fill="none" stroke="#000000" d="M587.7145,-337.4374C587.1489,-263.492 596.5188,-176.261 633,-106 638.5894,-95.235 646.5935,-85.4868 655.4958,-76.9024"/>
<ellipse fill="none" stroke="#000000" cx="587.7405" cy="-339.8887" rx="2.4" ry="2.4"/>
<ellipse fill="none" stroke="#000000" cx="661.7309" cy="-71.2705" rx="2.4" ry="2.4"/>
<polygon fill="#000000" stroke="#000000" points="656.9049,-78.4594 659.9499,-72.8792 654.0897,-75.3426 656.9049,-78.4594"/>
</g>
<!-- m_User&#45;&gt;m_Ahoy::Visit -->
<g id="edge15" class="edge">
<title>m_User&#45;&gt;m_Ahoy::Visit</title>
<path fill="none" stroke="#000000" d="M665.8595,-337.935C678.7193,-306.0072 691.2583,-274.8761 700.9237,-250.8791"/>
<ellipse fill="none" stroke="#000000" cx="664.954" cy="-340.1832" rx="2.4" ry="2.4"/>
<ellipse fill="none" stroke="#000000" cx="704.1209" cy="-242.9411" rx="2.4" ry="2.4"/>
<polygon fill="#000000" stroke="#000000" points="702.9305,-251.5174 703.2242,-245.1673 699.0346,-249.9482 702.9305,-251.5174"/>
</g>
<!-- m_User&#45;&gt;m_Profile -->
<g id="edge3" class="edge">
<title>m_User&#45;&gt;m_Profile</title>
<path fill="none" stroke="#000000" d="M537.9729,-337.935C524.6697,-306.0072 511.6984,-274.8761 501.6996,-250.8791"/>
<ellipse fill="none" stroke="#000000" cx="538.9141" cy="-340.194" rx="2.4" ry="2.4"/>
<ellipse fill="#000000" stroke="#000000" cx="498.3876" cy="-242.9303" rx="2.4" ry="2.4"/>
<polygon fill="#000000" stroke="#000000" points="503.5569,-249.8764 499.3107,-245.1457 499.68,-251.4919 503.5569,-249.8764"/>
</g>
<!-- m_User&#45;&gt;m_SchoolSubscription -->
<g id="edge6" class="edge">
<title>m_User&#45;&gt;m_SchoolSubscription</title>
<path fill="none" stroke="#000000" d="M518.5483,-422.6638C479.3208,-388.4631 432.6881,-346.2552 393,-306 383.935,-296.8055 374.6643,-286.8375 365.7135,-276.8769"/>
<ellipse fill="none" stroke="#000000" cx="520.5108" cy="-424.3723" rx="2.4" ry="2.4"/>
<ellipse fill="#000000" stroke="#000000" cx="364.0318" cy="-274.9975" rx="2.4" ry="2.4"/>
</g>
<!-- m_User&#45;&gt;m_Subscription -->
<g id="edge4" class="edge">
<title>m_User&#45;&gt;m_Subscription</title>
<path fill="none" stroke="#000000" d="M687.1383,-420.0087C724.4735,-386.1879 768.3777,-345.0322 806,-306 820.7228,-290.7255 836.053,-273.4092 849.6227,-257.5296"/>
<ellipse fill="none" stroke="#000000" cx="685.3259" cy="-421.6483" rx="2.4" ry="2.4"/>
<ellipse fill="#000000" stroke="#000000" cx="851.477" cy="-255.3525" rx="2.4" ry="2.4"/>
</g>
<!-- m_User&#45;&gt;m_Trial -->
<g id="edge5" class="edge">
<title>m_User&#45;&gt;m_Trial</title>
<path fill="none" stroke="#000000" d="M688.5991,-462.6275C768.6308,-430.7621 888.9813,-376.1654 979,-306 1006.3731,-284.664 1031.479,-253.5391 1047.4072,-231.6955"/>
<ellipse fill="none" stroke="#000000" cx="686.0959" cy="-463.6201" rx="2.4" ry="2.4"/>
<ellipse fill="#000000" stroke="#000000" cx="1048.8674" cy="-229.6746" rx="2.4" ry="2.4"/>
</g>
<!-- m_User&#45;&gt;m_User -->
<g id="edge2" class="edge">
<title>m_User&#45;&gt;m_User</title>
<path fill="none" stroke="#000000" d="M688.28,-535.1736C702.6052,-529.4462 712.5,-515.7217 712.5,-494 712.5,-475.2744 705.1466,-462.492 693.9405,-455.6528"/>
<ellipse fill="none" stroke="#000000" cx="685.9759" cy="-535.9383" rx="2.4" ry="2.4"/>
<ellipse fill="none" stroke="#000000" cx="685.9074" cy="-452.2433" rx="2.4" ry="2.4"/>
<polygon fill="#000000" stroke="#000000" points="694.4602,-453.5921 688.1166,-453.181 692.8193,-457.4583 694.4602,-453.5921"/>
</g>
</g>
</svg>
