<svg width="32" height="24" fill="none" xmlns="http://www.w3.org/2000/svg"><path d="M27.871 0H4.129C1.849 0 0 1.869 0 4.174v15.652C0 22.131 1.849 24 4.129 24h23.742C30.151 24 32 22.131 32 19.826V4.174C32 1.869 30.151 0 27.871 0z" fill="#0095FF"/><path fill-rule="evenodd" clip-rule="evenodd" d="M2 9.447L3.05 7h1.815l.595 1.37V7h2.257l.355.99.343-.99h10.13v.498S19.076 7 19.951 7l3.287.011.585 1.353V7h1.888l.52.777V7h1.906v4.396h-1.906l-.498-.78v.78H22.96l-.28-.693h-.745l-.275.693H19.78c-.753 0-1.235-.488-1.235-.488v.488h-2.836l-.563-.693v.693H4.595l-.278-.693h-.743l-.277.693H2V9.447zm1.421-1.905l-1.416 3.292h.922l.261-.66h1.519l.26.66h.942L4.494 7.542H3.421zm.524.766l.463 1.152H3.48l.464-1.152zm2.061-.767v3.292h.823V8.408l.875 2.425h.722l.872-2.425v2.425h.823V7.54h-1.3l-.743 2.127-.762-2.122-1.31-.005zm4.678 3.292V7.54h2.685v.737h-1.854v.563h1.81v.693h-1.81v.584h1.854v.715h-2.685zm3.161 0V7.543h1.832c.606 0 1.15.375 1.15 1.068 0 .592-.458.973-.903 1.01l1.083 1.214h-1.006l-.986-1.17h-.347v1.17h-.823zm1.764-2.555h-.94v.693h.952c.165 0 .378-.128.378-.346 0-.17-.165-.347-.39-.347zm2.394 2.555h-.84V7.54h.84v3.292zm1.811 0h.181l.347-.719h-.217c-.524 0-.888-.268-.888-.905 0-.537.319-.888.768-.888h.943v-.78h-.91c-1.108 0-1.634.696-1.634 1.66 0 .94.532 1.632 1.41 1.632zm1.972-3.291l-1.416 3.292h.922l.261-.66h1.519l.26.66h.942l-1.415-3.292h-1.073zm.524.766l.463 1.152h-.927l.464-1.152zm2.06-.767v3.292h.822V8.71l1.37 2.122h1.013V7.54h-.823V9.61l-1.336-2.068H24.37zM7.435 12.76v4.396h4.626l.506-.665.499.665h2.793v-1.018h.628c.545 0 .797-.165.797-.165v1.183h1.845v-.693l.563.693h9.355c.511-.004.953-.303.953-.303v-.89c-.134.37-.465.63-1.004.63h-1.753v-.714h1.646c.244 0 .35-.132.35-.277 0-.138-.105-.278-.35-.278h-.744c-.647 0-1.007-.394-1.007-.986 0-.527.33-1.036 1.291-1.036H30v-.542H13.105l-.516.651-.499-.65H7.435zM30 13.37l-.315.672H28.3c-.265 0-.346.14-.346.272 0 .136.1.287.303.287h.78c.527 0 .836.219.964.546v-1.778zm-22.002-.068v3.291h2.686v-.714H8.83v-.585h1.81V14.6H8.83v-.563h1.854v-.736H7.998zm15.843 3.291h-2.685v-3.291h2.685v.736h-1.853v.563h1.801v.693h-1.801v.585h1.853v.714zm-11.746-1.625l-1.307 1.625h1.022l.755-1.014.774 1.014h1.037l-1.31-1.646 1.32-1.645h-.995l-.8 1.03-.798-1.03h-1.036l1.338 1.666zm2.378-1.666v3.292h.845v-1.04h.866c.733 0 1.288-.389 1.288-1.145 0-.626-.435-1.107-1.181-1.107h-1.818zm.845.745h.912c.237 0 .406.145.406.378 0 .22-.168.38-.409.38h-.91v-.758zm3.335 2.546h-.823v-3.291h1.831c.607 0 1.15.375 1.15 1.068 0 .592-.458.973-.902 1.01l1.082 1.213h-1.005l-.987-1.17h-.346v1.17zm.94-2.555h-.94v.693h.953c.164 0 .377-.128.377-.347 0-.17-.164-.346-.39-.346zm4.63 2.555v-.714h1.646c.244 0 .35-.132.35-.277 0-.138-.106-.278-.35-.278h-.744c-.647 0-1.007-.394-1.007-.986 0-.527.33-1.036 1.291-1.036h1.603l-.347.74h-1.386c-.265 0-.346.14-.346.272 0 .136.1.287.303.287h.78c.72 0 1.033.409 1.033.945 0 .576-.348 1.047-1.073 1.047h-1.754z" fill="#fff"/></svg>