<svg width="32" height="24" fill="none" xmlns="http://www.w3.org/2000/svg"><mask id="a" maskUnits="userSpaceOnUse" x="0" y="0" width="32" height="24"><path d="M28 0H4a4 4 0 00-4 4v16a4 4 0 004 4h24a4 4 0 004-4V4a4 4 0 00-4-4z" fill="#fff"/></mask><g mask="url(#a)"><path d="M28 0H4a4 4 0 00-4 4v16a4 4 0 004 4h24a4 4 0 004-4V4a4 4 0 00-4-4z" fill="url(#paint0_linear)"/><path opacity=".1" d="M31.5 63C48.897 63 63 48.897 63 31.5S48.897 0 31.5 0 0 14.103 0 31.5 14.103 63 31.5 63z" transform="translate(6 6)" fill="url(#paint1_linear)"/><path opacity=".1" d="M16.5 33C25.613 33 33 25.613 33 16.5S25.613 0 16.5 0 0 7.387 0 16.5 7.387 33 16.5 33z" transform="translate(-10 12)" fill="url(#paint2_linear)"/><path opacity=".1" d="M26.5 53C41.136 53 53 41.136 53 26.5S41.136 0 26.5 0 0 11.864 0 26.5 11.864 53 26.5 53z" transform="translate(16 -31)" fill="url(#paint3_linear)"/><g filter="url(#filter0_d)"><path d="M10 7H5a1 1 0 00-1 1v3a1 1 0 001 1h5a1 1 0 001-1V8a1 1 0 00-1-1z" fill="#000"/></g><path d="M6 0H1a1 1 0 00-1 1v3a1 1 0 001 1h5a1 1 0 001-1V1a1 1 0 00-1-1z" transform="translate(4 7)" fill="url(#paint4_linear)"/><path opacity=".3" d="M6 8H5v3h1V8zM8 8H7v3h1V8zM10 8H9v3h1V8z" fill="#7A3802"/><path d="M9 15H4v1h5v-1zM7 17H4v1h3v-1zM11 17H8v1h3v-1zM15 17h-3v1h3v-1zM15 15h-5v1h5v-1zM21 15h-5v1h5v-1zM27 15h-5v1h5v-1z" fill="#fff" fill-opacity=".8"/></g><defs><linearGradient id="paint0_linear" x2="1" gradientUnits="userSpaceOnUse" gradientTransform="matrix(31.99998 -23.99998 31.99998 23.99998 -16 12)"><stop stop-color="#060B0E"/><stop offset="1" stop-color="#254764"/></linearGradient><linearGradient id="paint1_linear" x2="1" gradientUnits="userSpaceOnUse" gradientTransform="rotate(-110.052 12.697 4.253) scale(9.27096)"><stop stop-color="#fff" stop-opacity="0"/><stop offset="1" stop-color="#fff"/></linearGradient><linearGradient id="paint2_linear" x2="1" gradientUnits="userSpaceOnUse" gradientTransform="rotate(-103.962 18.194 13.83) scale(15.1227)"><stop stop-color="#fff" stop-opacity="0"/><stop offset="1" stop-color="#fff"/></linearGradient><linearGradient id="paint3_linear" x2="1" gradientUnits="userSpaceOnUse" gradientTransform="rotate(76.037 -.735 33.987) scale(24.2879)"><stop stop-color="#fff" stop-opacity="0"/><stop offset="1" stop-color="#fff"/></linearGradient><linearGradient id="paint4_linear" x2="1" gradientUnits="userSpaceOnUse" gradientTransform="matrix(0 5 -7 0 7 0)"><stop stop-color="#FAD961"/><stop offset="1" stop-color="#F7955D"/></linearGradient><filter id="filter0_d" x="3" y="7" width="9" height="7" filterUnits="userSpaceOnUse" color-interpolation-filters="sRGB"><feFlood flood-opacity="0" result="BackgroundImageFix"/><feColorMatrix in="SourceAlpha" values="0 0 0 0 0 0 0 0 0 0 0 0 0 0 0 0 0 0 255 0"/><feOffset dy="1"/><feGaussianBlur stdDeviation=".5"/><feColorMatrix values="0 0 0 0 0 0 0 0 0 0 0 0 0 0 0 0 0 0 0.1 0"/><feBlend in2="BackgroundImageFix" result="effect1_dropShadow"/><feBlend in="SourceGraphic" in2="effect1_dropShadow" result="shape"/></filter></defs></svg>