<svg fill="none" height="24" width="32" xmlns="http://www.w3.org/2000/svg"><path d="M4.129.5h23.742c2 0 3.629 1.64 3.629 3.674v15.652c0 2.034-1.63 3.674-3.629 3.674H4.129c-2 0-3.629-1.64-3.629-3.674V4.174C.5 2.14 2.13.5 4.129.5z" fill="#fff" stroke="#e6e6e6"/><g clip-rule="evenodd" fill-rule="evenodd"><path d="M8.774 5.74v12.52h8.3c1.814-.026 3.25-.474 4.27-1.337 1.239-1.049 1.867-2.705 1.867-4.923 0-1.06-.165-2.01-.491-2.826a5.15 5.15 0 00-1.37-1.97c-1.052-.93-2.528-1.433-4.275-1.462l-8.3-.002z" fill="#fff"/><path d="M10.379 16.609h2.313v-3.821H10.38zM12.867 10.877c0 .72-.586 1.303-1.31 1.303-.723 0-1.31-.583-1.31-1.303s.587-1.302 1.31-1.302c.724 0 1.31.583 1.31 1.302z" fill="#0a0b09"/><path d="M16.917 6.571c1.61 0 2.95.434 3.878 1.254 1.048.927 1.58 2.332 1.58 4.175 0 3.653-1.785 5.43-5.458 5.43H9.61V6.57zm.158-.831h-8.3v12.52h8.3v-.001c1.813-.025 3.249-.473 4.268-1.336 1.24-1.049 1.868-2.705 1.868-4.923 0-1.06-.165-2.01-.491-2.826a5.15 5.15 0 00-1.37-1.97c-1.052-.93-2.528-1.433-4.275-1.462V5.74z" fill="#0a0b09"/><path d="M16.917 6.571c1.61 0 2.95.434 3.878 1.254 1.048.927 1.58 2.332 1.58 4.175 0 3.653-1.785 5.43-5.458 5.43H9.61V6.57zm.158-.831h-8.3v12.52h8.3v-.001c1.813-.025 3.249-.473 4.268-1.336 1.24-1.049 1.868-2.705 1.868-4.923 0-1.06-.165-2.01-.491-2.826a5.15 5.15 0 00-1.37-1.97c-1.052-.93-2.528-1.433-4.275-1.462V5.74z" fill="#0a0b09"/><path d="M16.69 16.613h-2.935v-9.03h2.934-.118c2.447 0 5.052.961 5.052 4.527 0 3.77-2.605 4.503-5.052 4.503z" fill="#cd0067"/><path d="M13.69 10.283v1.436h.33c.123 0 .212-.007.266-.02a.41.41 0 00.179-.091c.047-.042.086-.112.116-.21s.044-.229.044-.396c0-.168-.015-.297-.044-.386a.495.495 0 00-.126-.21.422.422 0 00-.204-.102 2.025 2.025 0 00-.363-.021zm-.441-.368h.806c.181 0 .32.013.415.041a.73.73 0 01.33.2c.09.096.16.213.208.352.047.139.071.31.071.514 0 .178-.022.332-.067.462a.957.957 0 01-.234.384.776.776 0 01-.31.173 1.34 1.34 0 01-.39.046h-.83zM15.578 12.087V9.915h1.616v.368h-1.176v.481h1.094v.368h-1.094v.587h1.218v.368zM18.89 11.226l-.3-.805-.295.805zm.813.861h-.48l-.19-.493h-.873l-.181.493h-.468l.849-2.172h.47zM20.07 12.087V9.932h.441v1.787h1.098v.368z" fill="#fffffe"/></g></svg>