<svg width="32" height="24" fill="none" xmlns="http://www.w3.org/2000/svg"><path d="M4.129.5h23.742c2 0 3.629 1.64 3.629 3.674v15.652c0 2.034-1.63 3.674-3.629 3.674H4.129c-2 0-3.629-1.64-3.629-3.674V4.174C.5 2.14 2.13.5 4.129.5z" fill="#fff" stroke="#E6E6E6"/><path d="M12.903 17.217c2.85 0 5.162-2.336 5.162-5.217 0-2.882-2.311-5.217-5.162-5.217-2.85 0-5.161 2.335-5.161 5.217 0 2.881 2.31 5.217 5.161 5.217z" fill="#E7001A"/><path d="M19.097 17.217c2.85 0 5.161-2.336 5.161-5.217 0-2.882-2.31-5.217-5.161-5.217-2.85 0-5.162 2.335-5.162 5.217 0 2.881 2.311 5.217 5.162 5.217z" fill="#00A2E1"/><path opacity=".3" fill-rule="evenodd" clip-rule="evenodd" d="M16 7.826A5.228 5.228 0 0118.065 12c0 1.707-.811 3.222-2.065 4.174A5.228 5.228 0 0113.935 12c0-1.707.811-3.222 2.065-4.174z" fill="#E7001A"/></svg>