<svg xmlns="http://www.w3.org/2000/svg" xmlns:xlink="http://www.w3.org/1999/xlink" viewBox="0 3 32 29"><defs><path id="back_svg__a" d="M10.776 4.052a2.225 2.225 0 013.146-.066 2.44 2.44 0 01.147 3.367l-6.997 8.002 22.642-.068h.047l.048.001a2.233 2.233 0 012.143 2.32 2.431 2.431 0 01-2.422 2.335l-22.411.067 6.95 7.95a2.44 2.44 0 01-.147 3.366 2.225 2.225 0 01-3.215-.14L.362 19.352a2.433 2.433 0 01-.6-1.713l-.002-.133a2.431 2.431 0 01.602-1.547L10.707 4.127z"/></defs><use fill-rule="evenodd" xlink:href="#back_svg__a"/></svg>
