<svg xmlns="http://www.w3.org/2000/svg" xmlns:xlink="http://www.w3.org/1999/xlink" viewBox="0 0 24 32"><defs><path id="book_svg__a" d="M0 27.63l.001-16.295.019-.922c.047-1.93.135-3.07.263-3.418.147-.4 2.479-1.46 6.994-3.182l3.864-1.643C14.083.926 15.829.213 16.38.028c.107-.036.276-.036.44-.01.165.027.194.133.439.286.163.102.244.377.244.826l-.015 2.242-1.86-.791-5.613 2.23C6.319 6.293 2.19 7.971 2.28 8.019c1.92 1.026 3.91 1.232 5.97.617l14.367-5.982A1 1 0 0124 3.578v21.086a1 1 0 01-.617.923L18.04 27.79c-6.02 2.46-9.564 3.82-10.632 4.084-2.075.51-5.31-.656-5.848-.972C.138 30.067.009 29.188 0 27.629z"/></defs><use fill-rule="evenodd" xlink:href="#book_svg__a"/></svg>
