<svg xmlns="http://www.w3.org/2000/svg" xmlns:xlink="http://www.w3.org/1999/xlink" viewBox="0 1 32 32"><defs><path id="heart_svg__a" d="M18.68 8.089l-.898.962c-1.077 1.14-1.67 1.71-1.782 1.71-.138 0-1.032-.89-2.681-2.672l-.383-.441C11.46 5.981 10.57 5.446 8.65 5.446c-.34 0-.713.019-1.108.057-1.447.139-3.7 1.656-4.04 5.259v1.507c.266 2.826 3.94 7.536 11.02 14.128l.8.74a1 1 0 001.353 0l.801-.74c7.084-6.593 10.759-11.303 11.026-14.128v-1.507c-.345-3.602-2.596-5.12-4.045-5.259a11.648 11.648 0 00-1.108-.057c-2.081 0-2.949.627-4.668 2.643zm6.118-6.015l.085.016C25.87 2.295 32 4.214 32 10.613v1.8c-.264 3.327-5.219 9.503-14.865 18.53l-.455.426a1 1 0 01-1.363 0l-1.346-1.263C4.912 21.533.255 15.636 0 12.414v-1.8C.441 5.2 4.067 2.376 7.2 2.073 7.716 2.025 8.197 2 8.65 2c3.622 0 7.098 3.873 7.348 3.873S19.726 2 23.348 2h.492c.275.003.568.017.958.073z"/></defs><use fill-rule="evenodd" xlink:href="#heart_svg__a"/></svg>
