<svg xmlns="http://www.w3.org/2000/svg" xmlns:xlink="http://www.w3.org/1999/xlink" viewBox="0 0 32 32"><defs><path id="home_svg__a" d="M16.798 1.274L31.01 12.327a1.3 1.3 0 01-.798 2.326h-2.946c.023.096.035.197.035.3v13h3.318a1.3 1.3 0 011.3 1.3v1.3a1.3 1.3 0 01-1.3 1.3H1.3a1.3 1.3 0 01-1.3-1.3v-1.3a1.3 1.3 0 011.3-1.3h2.6v-13c0-.103.012-.204.035-.3H1.789a1.3 1.3 0 01-.798-2.326L15.2 1.274a1.3 1.3 0 011.597 0zm-6.363 13.379h-3.57c.023.096.035.197.035.3v13h3.5v-13c0-.103.012-.204.035-.3zm13.9 0h-3.57c.023.096.035.197.035.3v13h3.5v-13c0-.103.012-.204.035-.3zm-8.735 1.6a2.6 2.6 0 00-2.579 2.267l-.016.169-.005.164v9.1h5.2v-9.1l-.005-.164a2.6 2.6 0 00-2.595-2.436z"/></defs><use fill-rule="evenodd" xlink:href="#home_svg__a"/></svg>
