<svg id="Layer_1" data-name="Layer 1" xmlns="http://www.w3.org/2000/svg" viewBox="0 0 32 32"><title>Artboard 1</title><path d="M26.52,15.11a10.5,10.5,0,0,0-21,0A5.91,5.91,0,0,0,6,26.91H7.5V15.54a8.53,8.53,0,1,1,17.06,0V26.91h1.53a5.91,5.91,0,0,0,.43-11.8m-21,10a4.15,4.15,0,0,1,0-8.27Zm20.94,0V16.87a4.15,4.15,0,0,1,0,8.27"/><path d="M22.18,15.1A11.14,11.14,0,0,0,16,16.68,11.13,11.13,0,0,0,9.89,15.1H9.52V26.93l.39,0a10.54,10.54,0,0,1,5.94,1.59l.18.11.18-.11a10.54,10.54,0,0,1,5.94-1.59l.4,0V15.11h-.37M15.05,25.88l-.68-.26c-.29-.1-.59-.19-.89-.27s-.6-.15-.9-.21S12,25,11.66,25l-.17,0V17.13c.27,0,.54.09.8.15l.43.11.48.14.47.17.46.2a9.59,9.59,0,0,1,.9.47l0,0ZM20.58,25l-.18,0c-.31,0-.61.08-.92.13s-.6.13-.9.21-.6.17-.89.27l-.67.26V18.39l0,0c.29-.17.59-.33.89-.47l.47-.2.47-.17.47-.14.43-.11q.4-.09.81-.15Z"/></svg>