<svg xmlns="http://www.w3.org/2000/svg" xmlns:xlink="http://www.w3.org/1999/xlink" viewBox="4 2 26 30"><defs><path id="profile_svg__a" d="M17.5 2a8.5 8.5 0 014.046 15.977c4.19 1.87 7.193 6.202 7.438 11.024L29 29v1.9a1.1 1.1 0 01-1.1 1.1H6.1A1.1 1.1 0 015 30.9V29h.012l.002-.062c.243-5.048 3.516-9.513 8.012-11.21A8.5 8.5 0 0117.5 2zM17 19.8c-5.027 0-9.115 4.1-9.228 9.2h18.455v-.054C26.085 23.87 22.009 19.8 17 19.8zm.5-15.371a6.071 6.071 0 100 12.142 6.071 6.071 0 000-12.142z"/></defs><use fill-rule="evenodd" xlink:href="#profile_svg__a"/></svg>
