<svg xmlns="http://www.w3.org/2000/svg" viewBox="-2 0 32 32"><path fill-rule="evenodd" d="M19.054 1.507a1.47 1.47 0 01-.01 1.97l-.125.122-1.123.971C23.683 6.225 28 11.633 28 18.05c0 7.731-6.268 14-14 14s-14-6.269-14-14a13.937 13.937 0 013.44-9.193l.01.008.076-.086a2 2 0 013 2.64l-.629.778-.029.031A9.955 9.955 0 004 18.049c0 5.523 4.477 10 10 10s10-4.477 10-10c0-4.508-2.983-8.32-7.083-9.567l1.922 1.802a1.52 1.52 0 01.087 2.13 1.47 1.47 0 01-1.96.197l-.135-.112-4.807-4.505a1.535 1.535 0 01-.12-.125l-.094-.097a1.47 1.47 0 01.009-1.97l.125-.122 4.983-4.31a1.52 1.52 0 012.127.137z"/></svg>
