<svg xmlns="http://www.w3.org/2000/svg" xmlns:xlink="http://www.w3.org/1999/xlink" viewBox="0 2 32 32"><defs><path id="settings_svg__a" d="M9 27c0 .729.195 1.413.536 2.001L1.5 29A1.5 1.5 0 010 27.5v-1A1.5 1.5 0 011.5 25l8.036-.001A3.981 3.981 0 009 27zm4-4a4 4 0 013.509 2.078l-.045-.079L30.5 25a1.5 1.5 0 011.5 1.5v1a1.5 1.5 0 01-1.5 1.5l-14.036.001.059-.105A4 4 0 1113 23zm13-9a4 4 0 013.509 2.078l-.045-.079L30.5 16a1.5 1.5 0 011.5 1.5v1a1.5 1.5 0 01-1.5 1.5l-1.036.001.059-.105a4 4 0 01-7.046 0l.059.105L1.5 20A1.5 1.5 0 010 18.5v-1A1.5 1.5 0 011.5 16l21.036-.001-.045.079A4 4 0 0126 14zM8 5a4 4 0 013.509 2.078l-.045-.079L30.5 7A1.5 1.5 0 0132 8.5v1a1.5 1.5 0 01-1.5 1.5l-19.036.001.059-.105a4 4 0 01-7.046 0l.059.105L1.5 11A1.5 1.5 0 010 9.5v-1A1.5 1.5 0 011.5 7l3.036-.001-.045.079A4 4 0 018 5zm0 6a2 2 0 100-4 2 2 0 000 4zm18 9a2 2 0 100-4 2 2 0 000 4zm-13 9a2 2 0 100-4 2 2 0 000 4z"/></defs><use fill-rule="evenodd" xlink:href="#settings_svg__a"/></svg>
